<?xml version="1.0" encoding="UTF-8"?>
<svg xmlns="http://www.w3.org/2000/svg" xmlns:xlink="http://www.w3.org/1999/xlink" width="48pt" height="48pt" viewBox="0 0 48 48" version="1.1">
<g id="surface2679878">
<path style=" stroke:none;fill-rule:nonzero;fill:rgb(60%,60%,60%);fill-opacity:1;" d="M 18 4 C 10.292969 4 4 10.292969 4 18 C 4 25.707031 10.292969 32 18 32 C 21.496094 32 24.691406 30.695312 27.148438 28.5625 L 28 29.414062 L 28 32 L 40 44 L 44 40 L 32 28 L 29.414062 28 L 28.5625 27.148438 C 30.695312 24.691406 32 21.496094 32 18 C 32 10.292969 25.707031 4 18 4 Z M 18 8 C 23.546875 8 28 12.453125 28 18 C 28 23.546875 23.546875 28 18 28 C 12.453125 28 8 23.546875 8 18 C 8 12.453125 12.453125 8 18 8 Z M 18 8 "/>
</g>
</svg>
